<svg version="1.1"
   xmlns="http://www.w3.org/2000/svg" xmlns:xlink="http://www.w3.org/1999/xlink" xmlns:a="http://ns.adobe.com/AdobeSVGViewerExtensions/3.0/"
   x="0px" y="0px" width="476.7px" height="410.3px" viewBox="0 0 476.7 410.3" style="enable-background:new 0 0 476.7 410.3;"
   xml:space="preserve">
<style type="text/css">
  .st0{fill:#FFFFFF;}
  .st1{fill:none;}
  .st2{fill:#ED1C24;}
  .st3{fill:#EFB54E;}
  .st4{fill:#FCAF17;}
  .st5{fill:#FA7F0B;}
  .st6{fill:#EE3123;}
</style>
<defs>
</defs>
<g>
  <path class="st0" d="M193.9,91.7c0,0,0.1,0,0.1,0C194,91.7,193.9,91.7,193.9,91.7c20.3,11.2,75.4,17,84.3,56.5
    c0,0.1,0.1,0.2,0.1,0.3c22.5-49.2,11.5-118.8-16.4-134c-0.5-0.3-1-0.5-1.5-0.7c-1.9-1.1-4.2-1.8-6.9-1.8c-0.8,0-37.7,0.1-37.7,0.1
    h-1.1h-17.3c-6.2,0-11,4.5-11,9.6v14v10.5c0.1,0.5,0.2,0.9,0.2,1.4c-0.1-0.4-0.2-0.8-0.2-1.1v7.7v12.4v16.4
    C186.4,86.9,189.6,90.4,193.9,91.7z M260.6,89.9C260.6,90,260.6,90,260.6,89.9C260.6,90,260.6,90,260.6,89.9
    C260.6,89.9,260.6,89.9,260.6,89.9z"/>
  <path class="st0" d="M282.8,210.4c0,0-0.1,0-0.1,0C282.7,210.4,282.7,210.4,282.8,210.4c-20.3-11.2-75.4-17-84.3-56.5
    c0-0.1,0-0.2-0.1-0.3c-22.5,49.2-11.5,118.8,16.4,134c0.5,0.3,1,0.5,1.5,0.7c1.9,1.1,4.2,1.8,6.9,1.8c0.8,0,37.7-0.1,37.7-0.1h1.1
    h17.3c6.2,0,11-4.5,11-9.6v-14V256c-0.1-0.5-0.2-0.9-0.2-1.4c0.1,0.4,0.2,0.8,0.2,1.1V248v-12.4v-16.4
    C290.3,215.2,287.1,211.7,282.8,210.4z"/>
  <path class="st0" d="M235.4,111.2c0.1,0,0.2,0,0.3-0.1c-49.2-22.5-118.8-11.5-134,16.4c-0.3,0.5-0.5,1-0.7,1.5
    c-1.1,1.9-1.8,4.2-1.8,6.9c0,0.8,0.1,37.7,0.1,37.7v1.1V192c0,6.2,4.5,11,9.6,11h14h10.5c0.5-0.1,0.9-0.2,1.4-0.2
    c-0.4,0.1-0.8,0.2-1.1,0.2h7.7h12.4h16.4c4,0,7.5-3.1,8.8-7.4c0,0,0-0.1,0-0.1c0,0,0,0,0,0C190.1,175.3,196,120.2,235.4,111.2z
     M177.2,128.8C177.2,128.8,177.2,128.8,177.2,128.8C177.2,128.8,177.2,128.8,177.2,128.8C177.2,128.8,177.2,128.8,177.2,128.8z"/>
  <path class="st0" d="M389.3,128.4v-18.3c0-12.7-9.7-23-21.6-23h-61.2c-1.4,0-2.8,0.2-4.2,0.5C302,50.3,289.5,15.9,267.6,4
    c-0.6-0.3-1.2-0.6-1.9-0.9c-3.7-2-7.9-3.1-12.3-3.1c-0.8,0-37.8,0.1-37.7,0.1h-18.3c-12.7,0-23,9.7-23,21.6v61.2
    c0,1.5,0.2,2.9,0.5,4.2c-39.6,0.4-72.3,13.9-83.6,34.7c-0.3,0.6-0.6,1.2-0.9,1.8c-2,3.7-3,7.9-3,12.3c0,0.4,0.1,37.3,0.1,37.3
    c0,0.1,0,0.3,0,0.4h0V192c0,12.7,9.7,23,21.6,23h61.2c1.4,0,2.8-0.2,4.2-0.5c0.4,37.3,12.9,71.7,34.8,83.6c0.6,0.3,1.2,0.6,1.8,0.9
    c3.7,2,7.9,3.1,12.3,3.1c0.4,0,37.3-0.1,37.3-0.1c0.1,0,0.3,0,0.4,0v0h18.3c12.7,0,23-9.7,23-21.6v-61.2c0-1.4-0.2-2.9-0.5-4.2
    c39.6-0.4,72.3-13.9,83.6-34.7c0.3-0.6,0.6-1.2,0.9-1.8c2-3.6,3-7.9,3-12.3C389.4,165.4,389.3,128.4,389.3,128.4z"/>
  <path class="st0" d="M377.3,128.4v-1.1v-17.3c0-6.2-4.5-11-9.6-11h-14h-10.5c-0.5,0.1-0.9,0.2-1.4,0.2c0.4-0.1,0.8-0.2,1.1-0.2
    h-7.7H323h-16.4c-4,0-7.5,3.1-8.8,7.4c0,0,0,0.1,0,0.1c0,0,0,0,0,0c-11.1,20.2-17,75.3-56.4,84.3c-0.1,0-0.2,0-0.3,0.1
    c49.2,22.5,118.8,11.5,134-16.4c0.3-0.5,0.5-1,0.7-1.5c1.1-1.9,1.8-4.2,1.8-6.9C377.4,165.4,377.3,128.4,377.3,128.4z"/>
</g>
<g>
  <g>
    <g>
      <g>
        <path class="st0" d="M257.6,348.8c-9.6,0-16.4,3.3-20.5,9.8c-0.4,0.7,5.1,5.1,6.2,4c3.7-4.2,8.5-6.3,14.3-6.3
          c9.3,0,14.7,1.4,14.7,20.8c0,20.1-3.6,24-17.3,24c-9.4,0-14-3.5-14-10.5c0-3.5,1.3-5.7,3.7-7.5c2.4-1.8,5.8-2.3,10-2.3h12.4h1
          c0,0,0.8,0.4,0.8-1c0-1.7-0.4-4.8-1.8-4.8c-3.9,0-12.5,0-12.5,0c-6.7,0-11.9,0.6-15.8,3.6c-3.9,3.1-5.8,6.9-5.8,12.3
          c0,5.6,1.9,9.7,5.7,12.8c3.8,3.1,9,4.5,15.6,4.5c23.3,0,25.3-9,25.3-35.7c0-6.4-1.9-14.3-5.8-18.1
          C270.2,350.7,264.7,348.8,257.6,348.8z"/>
        <path class="st0" d="M201.5,348.8c-3.7,0-7.7,0.8-10.6,2.3c-3,1.6-5.2,2.4-6.4,4.6v-6.2v-14.7v-9c0-1-9.2,1.2-9.2,3.4v11.5v10.1
          v6.5v18.3v8.4c0,7.9,2.9,13.9,7.3,18.1c4.4,4.2,10.6,6.2,18,6.2c8.1,0,14.6-2.5,19-7.4c4.4-4.9,6.6-12.4,6.6-22.4
          C226.2,358.7,218,348.8,201.5,348.8z M201,401.1c-4.9,0-9.5-1.4-12.5-4.3c-3-2.9-4-7.2-4-12.8v-6.7v-10.3c0,0,1.3-2.8,2.2-3.8
          c0.9-1.1,2.1-2.1,3.3-3.2c1.2-1.1,2.9-2,4.8-2.7c1.9-0.7,4-1.1,6.2-1.1c14,0,17.4,7.5,17.4,22.5
          C218.4,393.5,214.8,401.1,201,401.1z"/>
        <path class="st0" d="M316.7,347.6H297h-2.5v-14.9c0-1.1,1-2.9,0.2-3.6c-1.7-1.6-5.2-1.8-7-1.8c-1.4,0-1.3,3.3-1.3,3.3v15.7v7.2
          v4.4v9.5v6.5v4.3v6.3v7.6v17.4c0,1.1,8,1.1,8,0v-53.9h20.4C315.8,355.6,318.7,347.6,316.7,347.6z"/>
        <path class="st0" d="M42.1,349.1c-8.3,0-23.8,2.8-23.8,25.3c0,2.4,0,4.8,0,7.7c0,4.5,0,10,0,17.9v6c0,2.4,8,1.2,8-1.2v-4.8
          v-17.9v-3.4c0-15.4,4.5-22.7,17.2-22.7c14.7,0,13.8,11.1,13.8,16.4v9.6v17.9v6c0,2.4,8,1.2,8-1.2v-4.8v-17.9V371
          C65.3,356.4,59.2,349.1,42.1,349.1z"/>
        <path class="st0" d="M160.4,350.7v23.1c1.1,20.9-3.3,24.9-13.8,24.9c-10.8,0-14.9-5.6-13.8-24.9v-21.3c0-2.4-8-4.2-8-1.8v6.4
          c0,7.9,0,13.4,0,17.8c0,2.9,0,5.3,0,7.7c0,21.6,8.8,24.7,21.8,24.7c12.2,0,21.8-2.1,21.8-24.7c0-2.4,0-4.8,0-7.7
          c0-4.5,0-10,0-17.8v-4.4C168.4,350.3,160.4,348.3,160.4,350.7z"/>
        <path class="st0" d="M82.5,382.4v-2.1v-4.8v-1.6v-1.1v-3.5c0-4.3,1.1-7.8,3.8-10.3c2.7-2.5,6.2-3.8,10.8-3.8
          c6,0,9.7,0.9,13.6,5.3c1.1,1.2,8-2.2,7.5-2.8c-4.2-6.7-11.3-10.1-21.2-10.1c-7.3,0-13,2-16.9,5.9c-4,3.9-6,9.2-6,15.8
          c0,2.7,0,5.3,0.1,7.7c-0.1,2.8-0.1,6.2-0.1,9.6c0,6.6,2,11.6,6,15.5c4,3.9,9.6,5.9,16.9,5.9c9.9,0,16.9-3.4,21.1-10.1
          c0.4-0.7-6.2-4.3-7.3-3.1c-3.8,4.3-7.8,5.5-13.9,5.5c-4.7,0-8-1.3-10.7-3.8c-2.7-2.5-3.8-5.9-3.8-10.3V383V382.4z"/>
        <path class="st0" d="M386.2,382.9v-2.1v-4.7v-1.6v-1v-3.4c0-4.3,1.2-7.6,3.8-10.1c2.6-2.5,6.1-3.7,10.7-3.7
          c5.9,0,10.8,2.1,14.5,6.4c1.1,1.2,6.7-3.3,6.3-4c-4.2-6.6-11.1-9.9-20.8-9.9c-7.2,0-12.7,1.9-16.6,5.8c-3.9,3.8-5.9,9-5.9,15.5
          c0,2.7,0,5.2,0,7.6c-0.1,2.8-0.1,6.1-0.1,9.4c0,6.5,2,11.4,5.9,15.3c3.9,3.8,9.5,5.8,16.6,5.8c9.7,0,16.6-3.3,20.8-9.9
          c0.4-0.7-5.2-5.2-6.3-4c-3.8,4.3-8.6,6.4-14.5,6.4c-4.6,0-8-1.2-10.6-3.7c-2.6-2.5-3.8-5.8-3.8-10.1v-3.4V382.9z"/>
        <path class="st0" d="M368.6,360.8c-1-2.3-2.4-4.3-4.1-6c-1.7-1.7-4-3.2-6.9-4.3c-2.9-1.2-6.2-1.7-10-1.7
          c-8.1,0-14.3,2.6-18.8,7.7c-4.4,5.1-6.7,12.5-6.7,21.9c0,10,2.3,17.5,7,22.4c4.6,4.9,11.2,7.3,19.7,7.3c8.2,0,14.7-2.3,19.3-6.9
          c0.9-0.9-5.6-4.8-6.4-4.4c-4.7,3.5-7.7,4-12.9,4c-18.1,0-19.5-15.9-19.5-23.3c0-10.8,3.8-21.6,18.3-21.6
          c10.5,0,15.7,7.6,15.7,20.2c0,0-18.9,0-28,0c-2.1,0-2.4,2.9-2.4,4.5c0,1.5,1.7,1.2,1.7,1.2h31.6c1.2,0,2.1-0.2,2.8-0.7
          c0.7-0.4,1.2-2.3,1.5-3.2c0.2-0.9,0.4-1.7,0.5-2.3c0.1-0.7,0.1-1.6,0.1-2.8c0-1.9-0.2-3.8-0.6-5.7
          C370.4,365.2,369.7,363.1,368.6,360.8z"/>
        <path class="st0" d="M2.2,324.9c-1.4,0-2.2,3.3-2.2,3.3v18.1v7.2v4.4v9.5v6.5v4.3v6.3v7.6v17.4c0,1.1,9.2,1.1,9.2,0v-79.2
          c0-1.1,0.5-2.9-0.3-3.6C7.2,325,4,324.9,2.2,324.9z"/>
        <path class="st0" d="M452.7,349.1c-4.3,0-10.4,0.8-16.1,4.7v-23.6c0-1.1,0.4-2.9-0.4-3.6c-1.7-1.6-5.5-1.7-7.2-1.7
          c-1.4,0-1.5,3.3-1.5,3.3v18.1v7.2v4.4v9.5v6.5v0.6c0,1.2,0,2.4,0,3.7c0,1.3,0,2.6,0,4.1c0,0.7,0,1.5,0,2.3c0,2.2,0,4.7,0,7.6
          c0,1.7,0,3.6,0,5.6c0,0.8,0,1.6,0,2.4v6c0,2.4,9.2,1.2,9.2-1.2v-4.8v-2.4v-15.5v-3.4c0-15.4,4.5-22.7,17.2-22.7
          c14.7,0,13.8,11.1,13.8,16.4v9.6v17.9v6c0,2.4,9.2,1.2,9.2-1.2v-4.8v-17.9V371C476.7,356.4,469.8,349.1,452.7,349.1z"/>
      </g>
    </g>
  </g>
</g>
<g>
  <g>
    <g>
      <path class="st1" d="M274,126.7c0-0.1,0-0.1-0.1-0.2c0,0,0,0,0,0C274,126.6,274,126.6,274,126.7z"/>
      <path class="st1" d="M215.7,12.1c-1,0.7-3.1,2.3-5.9,4.9C212.6,14.4,214.8,12.8,215.7,12.1z"/>
      <path class="st1" d="M274.4,128.2c0,0,0-0.1,0-0.1c0,0.1,0.1,0.2,0.1,0.3C274.4,128.3,274.4,128.3,274.4,128.2z"/>
      <path class="st2" d="M215.7,12.1h-1.1h-17.3c-6.2,0-11,4.5-11,9.6v14C188.4,24.2,198.2,13.8,215.7,12.1z"/>
      <path class="st3" d="M265,21.3v24.9v4.6c6,22.2,8.2,49.7,8.8,69.9c2.5,3.8,4.3,8,5.1,12.7c0.7,4.2,0.7,8.8-0.3,13.6
        c-0.1,0.4-0.1,0.7-0.2,1.1c0,0.2-0.1,0.3-0.1,0.5c22.5-49.2,11.5-118.8-16.4-134c-0.5-0.3-1-0.5-1.5-0.7
        C263.2,15.5,265,18.3,265,21.3z"/>
      <path class="st4" d="M274,126.5c-0.1-0.4-0.2-0.8-0.3-1.3C273.7,125.7,273.8,126.1,274,126.5C274,126.5,274,126.5,274,126.5z"/>
      <path class="st4" d="M265,82.7c0,2.9-1.8,5.4-4.4,7.2c3.6,7.2,7.7,17.3,10.8,27.5c-0.1-0.1-0.2-0.3-0.4-0.4
        c0.1,0.2,0.2,0.3,0.3,0.4c0.7,2.4,1.5,4.8,2.1,7.4c-0.7-2.6-1.4-5.1-2.1-7.4c0.9,1.1,1.7,2.1,2.4,3.2
        c-0.7-20.2-2.9-47.6-8.8-69.9V82.7z"/>
      <path class="st5" d="M274.4,128.4c0-0.1-0.1-0.2-0.1-0.3c-0.1-0.5-0.2-0.9-0.3-1.4c0-0.1,0-0.1-0.1-0.2c-0.1-0.4-0.2-0.9-0.3-1.3
        c0-0.2-0.1-0.3-0.1-0.5c-0.7-2.6-1.4-5-2.1-7.4c-0.1-0.1-0.2-0.3-0.3-0.4c-0.6-0.7-1.3-1.5-1.9-2.2c0,0,0-0.1-0.1-0.1
        c0,0-0.1-0.1-0.1-0.1c-0.4-0.4-0.7-0.7-1.1-1.1c0,0,0,0,0-0.1c-14.7-14-41.3-21-68.2-21.2c-0.4,0-0.8,0-1.2,0
        c-1.3,0-2.4-0.1-3.4-0.2c-0.3-0.1-0.7-0.1-1-0.2c0,0,0,0,0,0c20.2,11.1,75.3,17,84.3,56.4c0-0.1-0.1-0.3-0.1-0.4
        C277.1,140.5,275.9,134.4,274.4,128.4z"/>
      <path class="st5" d="M260.6,89.9C260.6,89.9,260.6,89.9,260.6,89.9c2.7-1.7,4.4-4.3,4.4-7.2v-32v-4.6V21.3c0-3.1-1.7-5.8-4.6-7.5
        c-1.9-1.1-4.2-1.8-6.9-1.8c0,0-4.9,9.2-9.5,26.3C238.8,58,249.1,67.1,260.6,89.9z"/>
      <path class="st5" d="M188.6,54c4.6-18.9,14.7-30.9,21.3-37.1c2.7-2.6,4.9-4.2,5.9-4.9c-17.5,1.8-27.4,12.2-29.3,23.6v10.5
        c0.1,0.5,0.2,0.9,0.2,1.4c0.5,2.3,1.2,4.5,1.7,6C188.5,53.7,188.5,53.9,188.6,54z"/>
      <path class="st2" d="M198.4,92.2c0.4,0,0.8,0,1.2,0c26.9,0.2,53.5,7.2,68.2,21.2c0,0,0,0,0,0.1c0.4,0.4,0.8,0.7,1.1,1.1
        c0,0,0,0,0.1,0.1c-5.2-10.1-12-17.2-19.6-22.5c-23-16.2-53.2-15.1-60.9-38.1c0,0,0,0,0,0c-0.1-0.2-0.1-0.3-0.2-0.5
        c-0.6-1.5-1.2-3.7-1.7-6c-0.1-0.4-0.2-0.8-0.2-1.1v7.7v12.4v16.4c0,4,3.1,7.5,7.4,8.8c0,0,0.1,0,0.1,0c0.3,0.1,0.6,0.2,1,0.2
        C196,92.1,197.1,92.2,198.4,92.2z"/>
      <path class="st6" d="M278.4,148c0.1-0.4,0.2-0.7,0.2-1.1c0.9-4.9,1-9.4,0.3-13.6c-0.8-4.7-2.6-8.8-5.1-12.7
        c-0.7-1.1-1.5-2.2-2.4-3.2c0.7,2.3,1.4,4.8,2.1,7.4c0,0.2,0.1,0.3,0.1,0.5c0.1,0.4,0.2,0.8,0.3,1.3c0,0.1,0,0.1,0.1,0.2
        c0.1,0.5,0.2,0.9,0.3,1.4c0,0,0,0.1,0,0.1c0,0.1,0,0.1,0.1,0.2c1.5,6,2.7,12.1,3.7,19.3c0,0.1,0.1,0.3,0.1,0.4
        c0,0.1,0.1,0.2,0.1,0.3C278.3,148.3,278.3,148.2,278.4,148z"/>
      <path class="st6" d="M188.6,54C188.6,54.1,188.6,54.1,188.6,54c7.7,23,37.9,21.9,60.9,38.1c7.5,5.3,14.4,12.3,19.6,22.5
        c0,0,0,0.1,0.1,0.1c0.7,0.7,1.3,1.4,1.9,2.2c0.1,0.1,0.2,0.3,0.4,0.4c-3.1-10.2-6.4-19.8-10.8-27.4c0,0,0-0.1,0-0.1
        C249.1,67.1,238.8,58,244,38.3c4.5-17.1,9.5-26.3,9.5-26.3c-0.8,0-37.7,0.1-37.7,0.1c-0.9,0.7-3.1,2.3-5.9,4.9
        C203.2,23.2,193.2,35.1,188.6,54z"/>
    </g>
    <g>
      <path class="st1" d="M202.7,175.4c0,0.1,0,0.1,0,0.2c0,0,0,0,0,0C202.7,175.5,202.7,175.5,202.7,175.4z"/>
      <path class="st1" d="M261,290c1-0.7,3.1-2.3,5.9-4.9C264.1,287.7,261.9,289.3,261,290z"/>
      <path class="st1" d="M202.3,173.9c0,0,0,0.1,0,0.1c0-0.1-0.1-0.2-0.1-0.3C202.3,173.8,202.3,173.8,202.3,173.9z"/>
      <path class="st2" d="M261,290h1.1h17.3c6.2,0,11-4.5,11-9.6v-14C288.3,277.9,278.4,288.3,261,290z"/>
      <path class="st3" d="M211.7,280.8v-24.9v-4.6c-6-22.3-8.2-49.7-8.8-69.9c-2.5-3.8-4.3-8-5.1-12.7c-0.7-4.2-0.7-8.8,0.3-13.6
        c0.1-0.4,0.1-0.7,0.2-1.1c0-0.2,0.1-0.3,0.1-0.5c-22.5,49.2-11.5,118.8,16.4,134c0.5,0.3,1,0.5,1.5,0.7
        C213.5,286.6,211.7,283.9,211.7,280.8z"/>
      <path class="st4" d="M202.7,175.6c0.1,0.4,0.2,0.8,0.3,1.3C202.9,176.4,202.8,176,202.7,175.6
        C202.7,175.6,202.7,175.6,202.7,175.6z"/>
      <path class="st4" d="M211.7,219.4c0-2.9,1.8-5.4,4.4-7.2c-3.6-7.2-7.7-17.3-10.8-27.5c0.1,0.1,0.2,0.3,0.4,0.4
        c-0.1-0.2-0.2-0.3-0.3-0.4c-0.7-2.4-1.5-4.8-2.1-7.4c0.7,2.6,1.4,5.1,2.1,7.4c-0.9-1.1-1.7-2.1-2.4-3.2
        c0.7,20.2,2.9,47.6,8.8,69.9V219.4z"/>
      <path class="st5" d="M202.3,173.7c0,0.1,0,0.2,0.1,0.3c0.1,0.5,0.2,0.9,0.3,1.4c0,0.1,0,0.1,0,0.2c0.1,0.4,0.2,0.9,0.3,1.3
        c0,0.2,0.1,0.3,0.1,0.5c0.7,2.6,1.4,5,2.1,7.4c0.1,0.1,0.2,0.3,0.3,0.4c0.6,0.7,1.3,1.5,1.9,2.2c0,0,0,0.1,0.1,0.1
        c0,0,0,0.1,0.1,0.1c0.4,0.4,0.7,0.7,1.1,1.1c0,0,0,0,0,0c14.7,14,41.3,21,68.2,21.2c0.4,0,0.8,0,1.2,0c1.3,0,2.4,0.1,3.4,0.2
        c0.3,0.1,0.6,0.1,1,0.2c0,0,0,0,0,0c-20.2-11.1-75.3-17-84.3-56.4c0,0.1,0.1,0.3,0.1,0.4C199.6,161.6,200.8,167.7,202.3,173.7z"
        />
      <path class="st5" d="M216.1,212.2C216.1,212.2,216.1,212.2,216.1,212.2c-2.7,1.7-4.4,4.3-4.4,7.2v32v4.6v24.9
        c0,3.1,1.7,5.8,4.6,7.5c1.9,1.1,4.2,1.8,6.9,1.8c0,0,4.9-9.2,9.5-26.3C237.9,244.1,227.6,235,216.1,212.2z"/>
      <path class="st5" d="M288.1,248.1c-4.6,18.9-14.7,30.9-21.3,37.1c-2.7,2.6-4.9,4.2-5.9,4.9c17.5-1.8,27.4-12.2,29.3-23.6V256
        c-0.1-0.5-0.2-0.9-0.2-1.4c-0.5-2.3-1.2-4.5-1.7-6C288.2,248.4,288.2,248.2,288.1,248.1z"/>
      <path class="st2" d="M278.3,209.9c-0.4,0-0.8,0-1.2,0c-26.9-0.2-53.5-7.2-68.2-21.2c0,0,0,0,0,0c-0.4-0.4-0.8-0.7-1.1-1.1
        c0,0-0.1-0.1-0.1-0.1c5.2,10.1,12,17.2,19.6,22.5c23,16.2,53.2,15.1,60.9,38.1c0,0,0,0,0,0c0.1,0.2,0.1,0.3,0.2,0.5
        c0.6,1.5,1.2,3.7,1.7,6c0.1,0.4,0.2,0.8,0.2,1.1V248v-12.4v-16.4c0-4-3.1-7.5-7.4-8.8c0,0-0.1,0-0.1,0c-0.3-0.1-0.6-0.2-1-0.2
        C280.7,210,279.6,209.9,278.3,209.9z"/>
      <path class="st6" d="M198.3,154.1c-0.1,0.4-0.2,0.7-0.2,1.1c-0.9,4.9-1,9.4-0.3,13.6c0.8,4.7,2.6,8.8,5.1,12.7
        c0.7,1.1,1.5,2.2,2.4,3.2c-0.7-2.3-1.4-4.8-2.1-7.4c0-0.2-0.1-0.3-0.1-0.5c-0.1-0.4-0.2-0.8-0.3-1.3c0-0.1,0-0.1,0-0.2
        c-0.1-0.5-0.2-0.9-0.3-1.4c0,0,0-0.1,0-0.1c0-0.1,0-0.1,0-0.2c-1.5-6-2.7-12.1-3.7-19.3c0-0.1-0.1-0.3-0.1-0.4
        c0-0.1,0-0.2-0.1-0.3C198.4,153.8,198.3,153.9,198.3,154.1z"/>
      <path class="st6" d="M288.1,248.1C288.1,248,288.1,248,288.1,248.1c-7.7-23-37.9-21.9-60.9-38.1c-7.5-5.3-14.4-12.3-19.6-22.5
        c0,0,0-0.1-0.1-0.1c-0.7-0.7-1.3-1.4-1.9-2.2c-0.1-0.1-0.2-0.3-0.4-0.4c3.1,10.2,6.4,19.8,10.8,27.4c0,0,0,0.1,0,0.1
        c11.4,22.7,21.8,31.9,16.6,51.5c-4.5,17.1-9.5,26.3-9.5,26.3c0.8,0,37.7-0.1,37.7-0.1c0.9-0.7,3.1-2.3,5.9-4.9
        C273.4,278.9,283.5,267,288.1,248.1z"/>
    </g>
  </g>
  <g>
    <g>
      <path class="st1" d="M214,115.4c-0.1,0-0.1,0-0.2,0.1c0,0,0,0,0,0C213.9,115.4,213.9,115.4,214,115.4z"/>
      <path class="st1" d="M99.4,173.7c0.7,1,2.3,3.1,4.9,5.9C101.7,176.8,100.1,174.6,99.4,173.7z"/>
      <path class="st1" d="M215.5,115c0,0-0.1,0-0.1,0c0.1,0,0.2-0.1,0.3-0.1C215.6,115,215.6,115,215.5,115z"/>
      <path class="st2" d="M99.4,173.7v1.1V192c0,6.2,4.5,11,9.6,11h14C111.5,201,101.1,191.2,99.4,173.7z"/>
      <path class="st3" d="M108.6,124.4h24.9h4.6c22.2-6,49.7-8.2,69.9-8.8c3.8-2.5,8-4.3,12.7-5.1c4.2-0.7,8.8-0.7,13.6,0.3
        c0.4,0.1,0.7,0.1,1.1,0.2c0.2,0,0.3,0.1,0.5,0.1c-49.2-22.5-118.8-11.5-134,16.4c-0.3,0.5-0.5,1-0.7,1.5
        C102.8,126.2,105.5,124.4,108.6,124.4z"/>
      <path class="st4" d="M213.8,115.4c-0.4,0.1-0.8,0.2-1.3,0.3C212.9,115.7,213.4,115.6,213.8,115.4
        C213.8,115.4,213.8,115.4,213.8,115.4z"/>
      <path class="st4" d="M170,124.4c2.9,0,5.4,1.8,7.2,4.4c7.2-3.6,17.3-7.7,27.5-10.8c-0.1,0.1-0.3,0.2-0.4,0.4
        c0.2-0.1,0.3-0.2,0.4-0.3c2.4-0.7,4.8-1.4,7.4-2.1c-2.6,0.7-5.1,1.4-7.4,2.1c1.1-0.9,2.1-1.7,3.2-2.4
        c-20.2,0.7-47.6,2.9-69.9,8.8H170z"/>
      <path class="st5" d="M215.7,115c-0.1,0-0.2,0.1-0.3,0.1c-0.5,0.1-0.9,0.2-1.4,0.3c-0.1,0-0.1,0-0.2,0.1c-0.4,0.1-0.9,0.2-1.3,0.3
        c-0.2,0-0.3,0.1-0.5,0.1c-2.6,0.7-5,1.4-7.4,2.1c-0.1,0.1-0.3,0.2-0.4,0.3c-0.7,0.6-1.5,1.3-2.2,1.9c0,0-0.1,0-0.1,0.1
        c0,0,0,0.1-0.1,0.1c-0.4,0.4-0.7,0.7-1.1,1.1c0,0,0,0,0,0c-14,14.7-21,41.3-21.2,68.2c0,0.4,0,0.8,0,1.2c0,1.3-0.1,2.4-0.2,3.4
        c-0.1,0.3-0.1,0.6-0.2,1c0,0,0,0,0,0c11.1-20.2,17-75.3,56.4-84.3c-0.1,0-0.3,0.1-0.4,0.1C227.8,112.3,221.7,113.5,215.7,115z"/>
      <path class="st5" d="M177.2,128.8C177.2,128.8,177.2,128.8,177.2,128.8c-1.7-2.7-4.3-4.4-7.2-4.4h-32h-4.6h-24.9
        c-3.1,0-5.8,1.7-7.5,4.6c-1.1,1.9-1.8,4.2-1.8,6.9c0,0,9.2,4.9,26.3,9.5C145.2,150.6,154.4,140.3,177.2,128.8z"/>
      <path class="st5" d="M141.3,200.8c-18.9-4.6-30.9-14.7-37.1-21.3c-2.6-2.7-4.2-4.9-4.9-5.9c1.8,17.5,12.2,27.4,23.6,29.3h10.5
        c0.5-0.1,0.9-0.2,1.4-0.2c2.3-0.5,4.5-1.2,6-1.7C141,200.9,141.2,200.9,141.3,200.8z"/>
      <path class="st2" d="M179.5,191c0-0.4,0-0.8,0-1.2c0.2-26.9,7.2-53.5,21.2-68.2c0,0,0,0,0,0c0.4-0.4,0.7-0.8,1.1-1.1
        c0,0,0,0,0.1-0.1c-10.1,5.2-17.2,12-22.5,19.6c-16.2,23-15.1,53.2-38.1,60.9c0,0,0,0,0,0c-0.2,0.1-0.3,0.1-0.5,0.2
        c-1.5,0.6-3.7,1.2-6,1.7c-0.4,0.1-0.8,0.2-1.1,0.2h7.7h12.4h16.4c4,0,7.5-3.1,8.8-7.4c0,0,0-0.1,0-0.1c0.1-0.3,0.2-0.6,0.2-1
        C179.4,193.4,179.5,192.3,179.5,191z"/>
      <path class="st6" d="M235.3,111c-0.4-0.1-0.7-0.2-1.1-0.2c-4.9-0.9-9.4-1-13.6-0.3c-4.7,0.8-8.8,2.6-12.7,5.1
        c-1.1,0.7-2.2,1.5-3.2,2.4c2.3-0.7,4.8-1.4,7.4-2.1c0.2,0,0.3-0.1,0.5-0.1c0.4-0.1,0.8-0.2,1.3-0.3c0.1,0,0.1,0,0.2-0.1
        c0.5-0.1,0.9-0.2,1.4-0.3c0,0,0.1,0,0.1,0c0.1,0,0.1,0,0.2-0.1c6-1.5,12.1-2.7,19.3-3.7c0.1,0,0.3-0.1,0.4-0.1
        c0.1,0,0.2,0,0.3-0.1C235.6,111.1,235.5,111.1,235.3,111z"/>
      <path class="st6" d="M141.3,200.8C141.4,200.8,141.4,200.8,141.3,200.8c23-7.7,21.9-37.9,38.1-60.9c5.3-7.5,12.3-14.4,22.5-19.6
        c0,0,0.1,0,0.1-0.1c0.7-0.7,1.4-1.3,2.2-1.9c0.1-0.1,0.3-0.2,0.4-0.4c-10.2,3.1-19.8,6.4-27.4,10.8c0,0-0.1,0-0.1,0
        c-22.7,11.4-31.9,21.8-51.5,16.6c-17.1-4.5-26.3-9.5-26.3-9.5c0,0.8,0.1,37.7,0.1,37.7c0.7,0.9,2.3,3.1,4.9,5.9
        C110.5,186.1,122.4,196.2,141.3,200.8z"/>
    </g>
    <g>
      <path class="st1" d="M262.7,186.7c0.1,0,0.1,0,0.2-0.1c0,0,0,0,0,0C262.8,186.7,262.8,186.7,262.7,186.7z"/>
      <path class="st1" d="M377.3,128.4c-0.7-1-2.3-3.1-4.9-5.9C375,125.3,376.6,127.5,377.3,128.4z"/>
      <path class="st1" d="M261.2,187.1c0,0,0.1,0,0.1,0c-0.1,0-0.2,0.1-0.3,0.1C261,187.1,261.1,187.1,261.2,187.1z"/>
      <path class="st2" d="M377.3,128.4v-1.1v-17.3c0-6.2-4.5-11-9.6-11h-14C365.2,101.1,375.6,111,377.3,128.4z"/>
      <path class="st3" d="M368.1,177.7h-24.9h-4.6c-22.2,6-49.7,8.2-69.9,8.8c-3.8,2.5-8,4.3-12.7,5.1c-4.2,0.7-8.8,0.7-13.6-0.3
        c-0.4-0.1-0.7-0.1-1.1-0.2c-0.2,0-0.3-0.1-0.5-0.1c49.2,22.5,118.8,11.5,134-16.4c0.3-0.5,0.5-1,0.7-1.5
        C373.9,175.9,371.1,177.7,368.1,177.7z"/>
      <path class="st4" d="M262.9,186.7c0.4-0.1,0.8-0.2,1.3-0.3C263.7,186.4,263.3,186.6,262.9,186.7
        C262.9,186.7,262.9,186.7,262.9,186.7z"/>
      <path class="st4" d="M306.7,177.7c-2.9,0-5.4-1.8-7.2-4.4c-7.2,3.6-17.3,7.7-27.5,10.8c0.1-0.1,0.3-0.2,0.4-0.4
        c-0.2,0.1-0.3,0.2-0.4,0.3c-2.4,0.7-4.8,1.5-7.4,2.1c2.6-0.7,5.1-1.4,7.4-2.1c-1.1,0.9-2.1,1.7-3.2,2.4
        c20.2-0.7,47.6-2.9,69.9-8.8H306.7z"/>
      <path class="st5" d="M261,187.1c0.1,0,0.2-0.1,0.3-0.1c0.5-0.1,0.9-0.2,1.4-0.3c0.1,0,0.1,0,0.2-0.1c0.4-0.1,0.9-0.2,1.3-0.3
        c0.2,0,0.3-0.1,0.5-0.1c2.6-0.7,5-1.4,7.4-2.1c0.1-0.1,0.3-0.2,0.4-0.3c0.7-0.6,1.5-1.3,2.2-1.9c0,0,0.1,0,0.1-0.1
        c0,0,0.1-0.1,0.1-0.1c0.4-0.4,0.7-0.7,1.1-1.1c0,0,0,0,0,0c14-14.7,21-41.3,21.2-68.2c0-0.4,0-0.8,0-1.2c0-1.3,0.1-2.4,0.2-3.4
        c0.1-0.3,0.1-0.6,0.2-1c0,0,0,0,0,0c-11.1,20.2-17,75.3-56.4,84.3c0.1,0,0.3-0.1,0.4-0.1C248.9,189.8,255,188.6,261,187.1z"/>
      <path class="st5" d="M299.5,173.3C299.5,173.3,299.5,173.3,299.5,173.3c1.7,2.7,4.3,4.4,7.2,4.4h32h4.6h24.9
        c3.1,0,5.8-1.7,7.5-4.6c1.1-1.9,1.8-4.2,1.8-6.9c0,0-9.2-4.9-26.3-9.5C331.4,151.5,322.3,161.8,299.5,173.3z"/>
      <path class="st5" d="M335.3,101.3c18.9,4.6,30.9,14.7,37.1,21.3c2.6,2.7,4.2,4.9,4.9,5.9c-1.8-17.5-12.2-27.4-23.6-29.3h-10.5
        c-0.5,0.1-0.9,0.2-1.4,0.2c-2.3,0.5-4.5,1.2-6,1.7C335.7,101.2,335.5,101.2,335.3,101.3z"/>
      <path class="st2" d="M297.2,111.1c0,0.4,0,0.8,0,1.2c-0.2,26.9-7.2,53.5-21.2,68.2c0,0,0,0,0,0c-0.4,0.4-0.7,0.8-1.1,1.1
        c0,0-0.1,0.1-0.1,0.1c10.1-5.2,17.2-12,22.5-19.6c16.2-23,15.1-53.2,38.1-60.9c0,0,0,0,0,0c0.2-0.1,0.3-0.1,0.5-0.2
        c1.5-0.6,3.7-1.2,6-1.7c0.4-0.1,0.8-0.2,1.1-0.2h-7.7H323h-16.4c-4,0-7.5,3.1-8.8,7.4c0,0,0,0.1,0,0.1c-0.1,0.3-0.2,0.6-0.2,1
        C297.3,108.7,297.2,109.8,297.2,111.1z"/>
      <path class="st6" d="M241.4,191.1c0.4,0.1,0.7,0.2,1.1,0.2c4.9,0.9,9.4,1,13.6,0.3c4.7-0.8,8.8-2.6,12.7-5.1
        c1.1-0.7,2.2-1.5,3.2-2.4c-2.3,0.7-4.8,1.4-7.4,2.1c-0.2,0-0.3,0.1-0.5,0.1c-0.4,0.1-0.8,0.2-1.3,0.3c-0.1,0-0.1,0-0.2,0.1
        c-0.5,0.1-0.9,0.2-1.4,0.3c0,0-0.1,0-0.1,0c-0.1,0-0.1,0-0.2,0.1c-6,1.5-12.1,2.7-19.3,3.7c-0.1,0-0.3,0.1-0.4,0.1
        c-0.1,0-0.2,0-0.3,0.1C241.1,191,241.2,191.1,241.4,191.1z"/>
      <path class="st6" d="M335.3,101.3C335.3,101.3,335.3,101.3,335.3,101.3c-23,7.7-21.9,37.9-38.1,60.9
        c-5.3,7.5-12.3,14.4-22.5,19.6c0,0-0.1,0-0.1,0.1c-0.7,0.7-1.4,1.3-2.2,1.9c-0.1,0.1-0.3,0.2-0.4,0.4
        c10.2-3.1,19.8-6.4,27.4-10.8c0,0,0.1,0,0.1,0c22.7-11.4,31.9-21.8,51.5-16.6c17.1,4.5,26.3,9.5,26.3,9.5
        c0-0.8-0.1-37.7-0.1-37.7c-0.7-0.9-2.3-3.1-4.9-5.9C366.2,116,354.3,105.9,335.3,101.3z"/>
    </g>
  </g>
</g>
</svg>
